<mxfile host="app.diagrams.net" agent="Mozilla/5.0 (Macintosh; Intel Mac OS X 10_15_7) AppleWebKit/537.36 (KHTML, like Gecko) Chrome/140.0.0.0 Safari/537.36" version="28.2.5">
  <diagram name="Page-1" id="C9bJRumhFQhJBT1QdkPO">
    <mxGraphModel dx="1081" dy="802" grid="1" gridSize="10" guides="1" tooltips="1" connect="1" arrows="1" fold="1" page="1" pageScale="1" pageWidth="827" pageHeight="1169" math="0" shadow="0">
      <root>
        <mxCell id="0" />
        <mxCell id="1" parent="0" />
        <mxCell id="S-BvVyqAKhGbcT2tyxxs-4" value="" style="edgeStyle=orthogonalEdgeStyle;rounded=0;orthogonalLoop=1;jettySize=auto;html=1;" edge="1" parent="1" source="S-BvVyqAKhGbcT2tyxxs-1" target="S-BvVyqAKhGbcT2tyxxs-3">
          <mxGeometry relative="1" as="geometry" />
        </mxCell>
        <mxCell id="S-BvVyqAKhGbcT2tyxxs-1" value="start" style="ellipse;whiteSpace=wrap;html=1;" vertex="1" parent="1">
          <mxGeometry x="299" y="20" width="80" height="40" as="geometry" />
        </mxCell>
        <mxCell id="S-BvVyqAKhGbcT2tyxxs-39" value="" style="edgeStyle=orthogonalEdgeStyle;rounded=0;orthogonalLoop=1;jettySize=auto;html=1;" edge="1" parent="1" source="S-BvVyqAKhGbcT2tyxxs-2" target="S-BvVyqAKhGbcT2tyxxs-38">
          <mxGeometry relative="1" as="geometry">
            <Array as="points">
              <mxPoint x="100" y="280" />
            </Array>
          </mxGeometry>
        </mxCell>
        <mxCell id="S-BvVyqAKhGbcT2tyxxs-2" value="isleap = 1" style="rounded=0;whiteSpace=wrap;html=1;" vertex="1" parent="1">
          <mxGeometry x="39" y="210" width="120" height="40" as="geometry" />
        </mxCell>
        <mxCell id="S-BvVyqAKhGbcT2tyxxs-7" value="" style="edgeStyle=orthogonalEdgeStyle;rounded=0;orthogonalLoop=1;jettySize=auto;html=1;" edge="1" parent="1" source="S-BvVyqAKhGbcT2tyxxs-3" target="S-BvVyqAKhGbcT2tyxxs-6">
          <mxGeometry relative="1" as="geometry" />
        </mxCell>
        <mxCell id="S-BvVyqAKhGbcT2tyxxs-3" value="year" style="shape=parallelogram;perimeter=parallelogramPerimeter;whiteSpace=wrap;html=1;fixedSize=1;" vertex="1" parent="1">
          <mxGeometry x="279" y="90" width="120" height="40" as="geometry" />
        </mxCell>
        <mxCell id="S-BvVyqAKhGbcT2tyxxs-46" value="" style="edgeStyle=orthogonalEdgeStyle;rounded=0;orthogonalLoop=1;jettySize=auto;html=1;" edge="1" parent="1" source="S-BvVyqAKhGbcT2tyxxs-6" target="S-BvVyqAKhGbcT2tyxxs-2">
          <mxGeometry relative="1" as="geometry">
            <Array as="points">
              <mxPoint x="99" y="185" />
            </Array>
          </mxGeometry>
        </mxCell>
        <mxCell id="S-BvVyqAKhGbcT2tyxxs-6" value="year % 4 == 0 AND year % 100 != 0 OR year % 400 == 0" style="rhombus;whiteSpace=wrap;html=1;" vertex="1" parent="1">
          <mxGeometry x="130" y="160" width="420" height="50" as="geometry" />
        </mxCell>
        <mxCell id="S-BvVyqAKhGbcT2tyxxs-18" value="" style="endArrow=classic;html=1;rounded=0;exitX=1;exitY=0.5;exitDx=0;exitDy=0;entryX=0.5;entryY=0;entryDx=0;entryDy=0;" edge="1" parent="1" source="S-BvVyqAKhGbcT2tyxxs-6" target="S-BvVyqAKhGbcT2tyxxs-34">
          <mxGeometry width="50" height="50" relative="1" as="geometry">
            <mxPoint x="319" y="480" as="sourcePoint" />
            <mxPoint x="579" y="205" as="targetPoint" />
            <Array as="points">
              <mxPoint x="579" y="185" />
            </Array>
          </mxGeometry>
        </mxCell>
        <mxCell id="S-BvVyqAKhGbcT2tyxxs-27" value="" style="endArrow=classic;html=1;rounded=0;exitDx=0;exitDy=0;" edge="1" parent="1">
          <mxGeometry width="50" height="50" relative="1" as="geometry">
            <mxPoint x="589" y="320" as="sourcePoint" />
            <mxPoint x="589" y="320" as="targetPoint" />
            <Array as="points" />
          </mxGeometry>
        </mxCell>
        <mxCell id="S-BvVyqAKhGbcT2tyxxs-51" value="" style="edgeStyle=orthogonalEdgeStyle;rounded=0;orthogonalLoop=1;jettySize=auto;html=1;" edge="1" parent="1" source="S-BvVyqAKhGbcT2tyxxs-29" target="S-BvVyqAKhGbcT2tyxxs-50">
          <mxGeometry relative="1" as="geometry" />
        </mxCell>
        <mxCell id="S-BvVyqAKhGbcT2tyxxs-29" value="isleap" style="shape=parallelogram;perimeter=parallelogramPerimeter;whiteSpace=wrap;html=1;fixedSize=1;" vertex="1" parent="1">
          <mxGeometry x="280" y="310" width="120" height="30" as="geometry" />
        </mxCell>
        <mxCell id="S-BvVyqAKhGbcT2tyxxs-32" value="True" style="text;html=1;align=center;verticalAlign=middle;whiteSpace=wrap;rounded=0;" vertex="1" parent="1">
          <mxGeometry x="80" y="160" width="60" height="20" as="geometry" />
        </mxCell>
        <mxCell id="S-BvVyqAKhGbcT2tyxxs-33" value="False" style="text;html=1;align=center;verticalAlign=middle;whiteSpace=wrap;rounded=0;" vertex="1" parent="1">
          <mxGeometry x="520" y="160" width="60" height="20" as="geometry" />
        </mxCell>
        <mxCell id="S-BvVyqAKhGbcT2tyxxs-34" value="isleap = 0" style="rounded=0;whiteSpace=wrap;html=1;" vertex="1" parent="1">
          <mxGeometry x="520" y="210" width="120" height="40" as="geometry" />
        </mxCell>
        <mxCell id="S-BvVyqAKhGbcT2tyxxs-41" value="" style="edgeStyle=orthogonalEdgeStyle;rounded=0;orthogonalLoop=1;jettySize=auto;html=1;exitX=0.461;exitY=0.971;exitDx=0;exitDy=0;exitPerimeter=0;" edge="1" parent="1" source="S-BvVyqAKhGbcT2tyxxs-34" target="S-BvVyqAKhGbcT2tyxxs-40">
          <mxGeometry relative="1" as="geometry">
            <mxPoint x="589" y="320" as="sourcePoint" />
            <Array as="points">
              <mxPoint x="580" y="249" />
              <mxPoint x="580" y="280" />
            </Array>
          </mxGeometry>
        </mxCell>
        <mxCell id="S-BvVyqAKhGbcT2tyxxs-38" value="" style="shape=waypoint;sketch=0;size=6;pointerEvents=1;points=[];fillColor=default;resizable=0;rotatable=0;perimeter=centerPerimeter;snapToPoint=1;rounded=0;" vertex="1" parent="1">
          <mxGeometry x="330" y="270" width="20" height="20" as="geometry" />
        </mxCell>
        <mxCell id="S-BvVyqAKhGbcT2tyxxs-49" value="" style="edgeStyle=orthogonalEdgeStyle;rounded=0;orthogonalLoop=1;jettySize=auto;html=1;" edge="1" parent="1" source="S-BvVyqAKhGbcT2tyxxs-40" target="S-BvVyqAKhGbcT2tyxxs-29">
          <mxGeometry relative="1" as="geometry" />
        </mxCell>
        <mxCell id="S-BvVyqAKhGbcT2tyxxs-40" value="" style="shape=waypoint;sketch=0;size=6;pointerEvents=1;points=[];fillColor=default;resizable=0;rotatable=0;perimeter=centerPerimeter;snapToPoint=1;rounded=0;" vertex="1" parent="1">
          <mxGeometry x="330" y="270" width="20" height="20" as="geometry" />
        </mxCell>
        <mxCell id="S-BvVyqAKhGbcT2tyxxs-50" value="end" style="ellipse;whiteSpace=wrap;html=1;" vertex="1" parent="1">
          <mxGeometry x="300" y="370" width="80" height="40" as="geometry" />
        </mxCell>
      </root>
    </mxGraphModel>
  </diagram>
</mxfile>
